<svg width="194" height="40" viewBox="0 0 194 40" fill="none" xmlns="http://www.w3.org/2000/svg">
<path d="M47.2705 7.6403C48.4469 7.6403 49.4006 6.68663 49.4006 5.51021C49.4006 4.3338 48.4469 3.38013 47.2705 3.38013C46.0941 3.38013 45.1405 4.3338 45.1405 5.51021C45.1405 6.68663 46.0941 7.6403 47.2705 7.6403Z" fill="white"/>
<path d="M14.9672 37.3689C15.5554 37.3689 16.0323 36.892 16.0323 36.3038C16.0323 35.7156 15.5554 35.2388 14.9672 35.2388C14.379 35.2388 13.9022 35.7156 13.9022 36.3038C13.9022 36.892 14.379 37.3689 14.9672 37.3689Z" fill="#FFFF00"/>
<path d="M64.1994 29.6412C64.9654 29.6412 65.5864 29.0203 65.5864 28.2542C65.5864 27.4882 64.9654 26.8672 64.1994 26.8672C63.4334 26.8672 62.8124 27.4882 62.8124 28.2542C62.8124 29.0203 63.4334 29.6412 64.1994 29.6412Z" fill="white"/>
<path d="M28.5584 18.4084C32.9178 14.4312 38.4048 11.9062 44.2612 11.1822C53.8216 10.0553 60.4346 13.3371 61.5987 18.749C62.577 23.3931 58.7257 31.2694 45.3882 36.4584C32.7071 41.4121 20.2179 39.7217 20.2179 39.7217C26.5478 39.7401 32.8378 38.7193 38.8371 36.6999C49.8835 32.7617 56.1745 25.6346 55.0414 20.3899C54.3479 17.201 50.5151 14.6932 44.9547 14.6932C36.447 14.6932 28.5584 18.4084 28.5584 18.4084Z" fill="#FFFF00"/>
<path d="M34.1313 35.3501C42.6088 35.3501 49.4812 28.4776 49.4812 19.9999C49.4812 11.5222 42.6088 4.64966 34.1313 4.64966C25.6539 4.64966 18.7815 11.5222 18.7815 19.9999C18.7815 28.4776 25.6539 35.3501 34.1313 35.3501Z" fill="#000078"/>
<path d="M34.1313 33.449C41.5589 33.449 47.5802 27.4276 47.5802 19.9998C47.5802 12.572 41.5589 6.55054 34.1313 6.55054C26.7037 6.55054 20.6824 12.572 20.6824 19.9998C20.6824 27.4276 26.7037 33.449 34.1313 33.449Z" fill="white"/>
<path d="M34.1315 7.46704C31.6525 7.46582 29.2289 8.19981 27.1671 9.57619C25.1053 10.9526 23.4981 12.9095 22.5485 15.1995C21.599 17.4894 21.35 20.0096 21.8328 22.4411C22.3157 24.8726 23.5088 27.1063 25.2613 28.8597C27.0138 30.6131 29.2468 31.8073 31.678 32.2914C34.1093 32.7755 36.6294 32.5277 38.9198 31.5793C41.2102 30.6309 43.1679 29.0245 44.5452 26.9634C45.9226 24.9022 46.6578 22.4789 46.6578 19.9999C46.6545 16.678 45.3339 13.4931 42.9857 11.1436C40.6374 8.79415 37.4532 7.47196 34.1315 7.46704ZM34.1315 8.76738C35.7792 8.76795 37.4066 9.13104 38.8983 9.83089C40.39 10.5307 41.7094 11.5502 42.763 12.817C42.4832 13.4302 42.1518 14.0185 41.7723 14.5756L41.6237 14.3898C41.374 14.0978 41.1094 13.8188 40.8311 13.5539C40.2787 13.0299 39.6798 12.5574 39.0417 12.1421C37.7835 11.3296 36.3851 10.7585 34.9179 10.4578C36.9686 11.1941 38.7694 12.4949 40.1129 14.2102C40.3355 14.4873 40.5422 14.7768 40.7321 15.0771L41.0169 15.5725C40.4094 16.2727 39.7191 16.8964 38.9612 17.4301C37.7629 15.8355 36.2002 14.551 34.4039 13.6839C32.4551 12.7558 30.2946 12.3626 28.1438 12.5446C29.6952 12.5876 31.2218 12.9451 32.631 13.5954C34.0401 14.2458 35.3026 15.1754 36.342 16.3279C36.8595 16.898 37.3161 17.5206 37.7042 18.1856C36.6636 18.7296 35.5435 19.1058 34.3854 19.3002C33.0246 17.7792 31.3076 16.6196 29.3884 15.9255C27.6518 15.2965 25.7945 15.072 23.9581 15.2691C24.8595 13.3297 26.2955 11.6877 28.0976 10.5361C29.8996 9.38438 31.9929 8.7708 34.1315 8.76738ZM22.8993 19.9999C22.8955 18.4891 23.1989 16.9934 23.7909 15.6035C24.451 15.5805 25.1117 15.6137 25.7661 15.7025L25.5246 16.3218C25.3946 16.6809 25.2955 17.0586 25.1965 17.4301C25.0197 18.1701 24.9099 18.9244 24.8683 19.6841C24.8009 21.1813 25.0109 22.6781 25.4875 24.099C25.2322 22.6641 25.2469 21.1941 25.5308 19.7646C25.674 19.0658 25.8812 18.3818 26.15 17.7212C26.2797 17.3948 26.4286 17.0764 26.5958 16.7676L27.0664 15.944C27.7686 16.1161 28.4528 16.3546 29.1098 16.6561C29.3141 16.749 29.5185 16.8543 29.729 16.9595C29.5214 17.3884 29.3495 17.8337 29.2151 18.2908C29.0503 18.9002 28.9323 19.5212 28.8621 20.1485C28.7167 21.3551 28.7585 22.577 28.9859 23.7709C29.007 22.0121 29.4307 20.2815 30.2243 18.7119C30.4039 18.3466 30.5897 17.9874 30.7878 17.6407C31.7934 18.3205 32.6839 19.1567 33.4256 20.1175C32.7461 21.9397 32.4988 23.8948 32.7029 25.8288C32.9071 27.7628 33.5571 29.6231 34.6021 31.2633H34.1563C32.6775 31.2641 31.2131 30.9732 29.8469 30.4073C28.4807 29.8414 27.2396 29.0116 26.1946 27.9654C25.1495 26.9192 24.321 25.6771 23.7566 24.3102C23.1922 22.9434 22.903 21.4786 22.9055 19.9999H22.8993Z" fill="#000078"/>
<path d="M23.9952 28.8177C23.215 28.9127 22.4534 28.9746 21.7103 29.0035C22.533 30.1428 23.5104 31.1619 24.6144 32.0314C24.9673 31.9324 25.3203 31.8271 25.6856 31.7095C31.2938 29.8707 36.1924 26.3352 39.7042 21.5916C35.3431 25.5699 29.8538 28.0951 23.9952 28.8177Z" fill="#000078"/>
<path d="M39.704 21.5914C35.3446 25.5686 29.8576 28.0937 24.0012 28.8176C14.4347 29.9445 7.82785 26.6627 6.66376 21.2508C5.68544 16.6067 9.53679 8.73039 22.8804 3.5414C35.5616 -1.41228 48.0445 0.27816 48.0445 0.27816C41.7146 0.260082 35.4247 1.28089 29.4254 3.2999C18.3789 7.23808 12.0879 14.3652 13.2272 19.6099C13.9145 22.7989 17.7536 25.3067 23.3077 25.3067C31.8279 25.3067 39.704 21.5914 39.704 21.5914Z" fill="#FFFF00"/>
<path d="M53.5183 4.22892C53.539 4.15345 53.579 4.08467 53.6344 4.02931C53.6897 3.97395 53.7585 3.93391 53.834 3.91313L54.3046 3.7769C54.3207 3.77047 54.3345 3.75936 54.3442 3.74502C54.3539 3.73067 54.3592 3.71374 54.3592 3.69641C54.3592 3.67908 54.3539 3.66215 54.3442 3.6478C54.3345 3.63345 54.3207 3.62234 54.3046 3.61591L53.834 3.47968C53.7591 3.45783 53.6908 3.41744 53.6356 3.36224C53.5805 3.30704 53.5401 3.23883 53.5183 3.16389L53.382 2.69328C53.382 2.67193 53.3735 2.65146 53.3584 2.63637C53.3433 2.62127 53.3228 2.61279 53.3015 2.61279C53.2801 2.61279 53.2597 2.62127 53.2446 2.63637C53.2295 2.65146 53.221 2.67193 53.221 2.69328L53.0848 3.16389C53.0629 3.23883 53.0225 3.30704 52.9673 3.36224C52.9121 3.41744 52.8439 3.45783 52.769 3.47968L52.2984 3.61591C52.2823 3.62234 52.2685 3.63345 52.2588 3.6478C52.2491 3.66215 52.2439 3.67908 52.2439 3.69641C52.2439 3.71374 52.2491 3.73067 52.2588 3.74502C52.2685 3.75936 52.2823 3.77047 52.2984 3.7769L52.769 3.91313C52.8445 3.93391 52.9133 3.97395 52.9686 4.02931C53.024 4.08467 53.064 4.15345 53.0848 4.22892L53.221 4.69953C53.2274 4.71562 53.2385 4.72941 53.2529 4.73913C53.2672 4.74885 53.2842 4.75405 53.3015 4.75405C53.3188 4.75405 53.3357 4.74885 53.3501 4.73913C53.3644 4.72941 53.3756 4.71562 53.382 4.69953L53.5183 4.22892Z" fill="#FFFF00"/>
<path d="M20.571 33.4244C20.5262 33.5703 20.4464 33.703 20.3384 33.811C20.2305 33.9189 20.0977 33.9988 19.9518 34.0436L19.0106 34.3161C18.9755 34.3259 18.9445 34.3469 18.9225 34.376C18.9004 34.4051 18.8885 34.4406 18.8885 34.477C18.8885 34.5135 18.9004 34.549 18.9225 34.5781C18.9445 34.6071 18.9755 34.6282 19.0106 34.638L19.9518 34.9105C20.0982 34.9543 20.2315 35.0339 20.3396 35.142C20.4476 35.25 20.5272 35.3833 20.571 35.5297L20.8373 36.4709C20.8471 36.506 20.8682 36.537 20.8972 36.559C20.9263 36.5811 20.9618 36.593 20.9983 36.593C21.0348 36.593 21.0702 36.5811 21.0993 36.559C21.1283 36.537 21.1494 36.506 21.1593 36.4709L21.4317 35.5297C21.475 35.383 21.5544 35.2495 21.6625 35.1414C21.7707 35.0332 21.9042 34.9538 22.0509 34.9105L22.9921 34.638C23.0272 34.6282 23.0582 34.6071 23.0802 34.5781C23.1023 34.549 23.1141 34.5135 23.1141 34.477C23.1141 34.4406 23.1023 34.4051 23.0802 34.376C23.0582 34.3469 23.0272 34.3259 22.9921 34.3161L22.0509 34.0436C21.9045 33.9998 21.7712 33.9202 21.6631 33.8121C21.5551 33.7041 21.4755 33.5708 21.4317 33.4244L21.1593 32.4832C21.1494 32.4481 21.1283 32.4171 21.0993 32.3951C21.0702 32.373 21.0348 32.3611 20.9983 32.3611C20.9618 32.3611 20.9263 32.373 20.8972 32.3951C20.8682 32.4171 20.8471 32.4481 20.8373 32.4832L20.571 33.4244Z" fill="white"/>
<path d="M66.1561 23.8577C70.862 16.5882 67.667 10.1917 56.9858 8.66846C61.8279 9.78304 65.5864 13.8079 66.4162 17.7275C66.8236 19.7621 66.7343 21.8649 66.1561 23.8577Z" fill="white"/>
<path d="M3.79082 11.0463C3.76195 11.1437 3.70956 11.2324 3.63829 11.3048C3.56703 11.3771 3.47905 11.4308 3.38213 11.4612L2.76294 11.6346C2.74108 11.6422 2.72215 11.6564 2.70875 11.6752C2.69534 11.6941 2.68811 11.7167 2.68811 11.7398C2.68811 11.763 2.69534 11.7855 2.70875 11.8044C2.72215 11.8233 2.74108 11.8375 2.76294 11.8451L3.38213 12.0247C3.47835 12.0544 3.56587 12.1072 3.63708 12.1784C3.7083 12.2496 3.76108 12.3371 3.79082 12.4333L3.97042 13.0525C3.97608 13.0754 3.98916 13.0956 4.00768 13.1101C4.0262 13.1246 4.04902 13.1325 4.07253 13.1325C4.09604 13.1325 4.11887 13.1246 4.13738 13.1101C4.1559 13.0956 4.16906 13.0754 4.17472 13.0525L4.35431 12.4333C4.38406 12.3371 4.43684 12.2496 4.50805 12.1784C4.57927 12.1072 4.66671 12.0544 4.76293 12.0247L5.38212 11.8451C5.40398 11.8375 5.42299 11.8233 5.43639 11.8044C5.4498 11.7855 5.45695 11.763 5.45695 11.7398C5.45695 11.7167 5.4498 11.6941 5.43639 11.6752C5.42299 11.6564 5.40398 11.6422 5.38212 11.6346L4.76293 11.4612C4.66601 11.4308 4.57811 11.3771 4.50684 11.3048C4.43558 11.2324 4.38319 11.1437 4.35431 11.0463L4.17472 10.4271C4.16906 10.4043 4.1559 10.384 4.13738 10.3695C4.11887 10.355 4.09604 10.3472 4.07253 10.3472C4.04902 10.3472 4.0262 10.355 4.00768 10.3695C3.98916 10.384 3.97608 10.4043 3.97042 10.4271L3.79082 11.0463Z" fill="white"/>
<path d="M2.11277 16.1421C-2.58692 23.4116 0.608086 29.8081 11.283 31.3313C6.4409 30.2167 2.6824 26.1919 1.85268 22.2723C1.4513 20.2372 1.54048 18.1358 2.11277 16.1421Z" fill="white"/>
<path d="M44.3667 18.5943C44.2328 17.6466 43.9703 16.7217 43.5865 15.845C42.9587 16.7581 42.2203 17.59 41.3883 18.3218C41.6517 18.9077 41.8591 19.5173 42.0075 20.1423C42.3291 21.5103 42.3816 22.9277 42.1623 24.3158C41.9842 25.4732 41.6248 26.5954 41.0973 27.6409C41.5491 27.2127 41.9634 26.7466 42.3357 26.2477C43.1637 25.1698 43.7696 23.9383 44.1182 22.6245C44.4668 21.3108 44.5513 19.9409 44.3667 18.5943Z" fill="white"/>
<path d="M76.8186 21.7647C76.4316 21.7631 76.0487 21.6853 75.6917 21.5356C75.3347 21.386 75.0107 21.1676 74.7382 20.8927C74.4657 20.6179 74.2499 20.292 74.1033 19.9338C73.9567 19.5756 73.882 19.192 73.8836 18.8049V17.5665H76.8186V18.1176C76.7985 18.3373 76.8131 18.5588 76.862 18.774C77.0771 18.8233 77.2986 18.838 77.5183 18.8173H84.9486C85.1724 18.8379 85.3982 18.8233 85.6174 18.774C85.64 18.5557 85.64 18.3358 85.6174 18.1176V16.5572C85.64 16.339 85.64 16.119 85.6174 15.9008C85.3982 15.8515 85.1724 15.8369 84.9486 15.8575H76.7939C76.016 15.8558 75.2704 15.5461 74.7204 14.996C74.1703 14.4459 73.8605 13.7003 73.8589 12.9224V9.94401C73.8573 9.55695 73.9319 9.17335 74.0785 8.81513C74.2251 8.4569 74.4409 8.13106 74.7134 7.85622C74.9859 7.58137 75.3099 7.3629 75.6669 7.21327C76.0239 7.06365 76.4068 6.98581 76.7939 6.98418H85.6855C86.0718 6.98181 86.4546 7.05736 86.811 7.20631C87.1674 7.35526 87.4901 7.57455 87.7598 7.85108C88.0452 8.11885 88.2715 8.4434 88.424 8.80385C88.5765 9.1643 88.6519 9.55268 88.6453 9.94401V11.1824H85.6483V10.6313C85.6713 10.4131 85.6713 10.1932 85.6483 9.97497C85.4291 9.92564 85.2034 9.91101 84.9796 9.93162H77.5493C77.3296 9.91096 77.1081 9.9256 76.893 9.97497C76.8436 10.19 76.8289 10.4116 76.8496 10.6313V12.167C76.8295 12.3867 76.8441 12.6082 76.893 12.8233C77.1086 12.8689 77.3296 12.8835 77.5493 12.8667H85.7412C86.1271 12.8632 86.5097 12.9376 86.8662 13.0855C87.2226 13.2334 87.5455 13.4517 87.8155 13.7274C88.0989 13.9928 88.324 14.3143 88.4764 14.6714C88.6289 15.0285 88.7054 15.4135 88.701 15.8017V18.7801C88.7068 19.1714 88.6311 19.5595 88.4786 19.9198C88.3262 20.2802 88.1003 20.6048 87.8155 20.8731C87.5458 21.1496 87.2231 21.3689 86.8667 21.5178C86.5103 21.6668 86.1275 21.7423 85.7412 21.74L76.8186 21.7647Z" fill="#FFFF00"/>
<path d="M90.9053 21.7645V6.99634H102.738C103.521 7.00119 104.27 7.31374 104.823 7.86643C105.377 8.41912 105.691 9.16756 105.698 9.94998V13.851C105.688 14.6313 105.373 15.3765 104.819 15.9266C104.266 16.4766 103.518 16.7874 102.738 16.7923H93.865V21.7459L90.9053 21.7645ZM94.5461 13.8324H102.02C102.239 13.8487 102.46 13.8362 102.676 13.7953C102.725 13.578 102.739 13.3545 102.72 13.1327V10.6559C102.741 10.4382 102.726 10.2186 102.676 10.0057C102.459 9.97281 102.239 9.96244 102.02 9.97475H94.5461C94.3392 9.96368 94.1317 9.97405 93.9269 10.0057C93.9038 10.2218 93.9038 10.4398 93.9269 10.6559V13.1327C93.9046 13.353 93.9046 13.575 93.9269 13.7953C94.1308 13.8346 94.339 13.8471 94.5461 13.8324Z" fill="#FFFF00"/>
<path d="M107.24 21.7648V9.93172C107.238 9.5431 107.313 9.15798 107.461 8.79855C107.609 8.43911 107.826 8.11245 108.101 7.83736C108.375 7.56227 108.701 7.34418 109.061 7.19565C109.42 7.04712 109.805 6.97107 110.193 6.97189H119.066C119.455 6.96713 119.84 7.04154 120.199 7.19058C120.558 7.33962 120.882 7.56017 121.153 7.83879C121.436 8.10812 121.659 8.43325 121.809 8.79354C121.96 9.15383 122.033 9.54141 122.026 9.93172V21.7648H119.048V16.8917H110.193V21.7648H107.24ZM110.193 13.938H119.048V10.6314C119.068 10.4117 119.054 10.1901 119.004 9.97507C118.789 9.92622 118.568 9.91159 118.348 9.93172H110.874C110.667 9.91355 110.458 9.92818 110.255 9.97507C110.222 10.1922 110.212 10.4122 110.224 10.6314L110.193 13.938Z" fill="#FFFF00"/>
<path d="M127.326 21.7648C126.937 21.7664 126.552 21.691 126.192 21.5428C125.832 21.3946 125.505 21.1767 125.23 20.9015C124.955 20.6263 124.737 20.2994 124.589 19.9396C124.441 19.5797 124.365 19.1941 124.367 18.8049V9.93165C124.358 9.54235 124.431 9.15553 124.579 8.79541C124.727 8.43528 124.948 8.10959 125.227 7.83872C125.5 7.55857 125.826 7.33714 126.187 7.18804C126.548 7.03895 126.936 6.96537 127.326 6.97183H139.091V9.93165H127.946C127.738 9.91306 127.529 9.9277 127.326 9.975C127.3 10.193 127.3 10.4134 127.326 10.6314V18.1052C127.3 18.3232 127.3 18.5436 127.326 18.7616C127.529 18.8089 127.738 18.8235 127.946 18.8049H139.091V21.7648H127.326Z" fill="#FFFF00"/>
<path d="M141.289 21.7649V6.97192H154.912V9.93175H144.249V12.8916H152.837V15.8452H144.249V18.805H154.912V21.7649H141.289Z" fill="#FFFF00"/>
<path d="M156.961 21.7645V6.99634H168.794C169.576 7.00119 170.325 7.31374 170.879 7.86643C171.433 8.41912 171.747 9.16756 171.754 9.94998V13.851C171.744 14.6313 171.428 15.3765 170.875 15.9266C170.321 16.4766 169.574 16.7874 168.794 16.7923H168.323L171.729 20.8357V21.7645H168.633L164.466 16.8108H159.927V21.7645H156.961ZM160.596 13.8324H168.076C168.295 13.8483 168.516 13.8358 168.732 13.7953C168.777 13.5775 168.791 13.3545 168.775 13.1327V10.6559C168.792 10.4382 168.778 10.2192 168.732 10.0057C168.515 9.97316 168.295 9.96279 168.076 9.97475H160.596C160.389 9.96341 160.181 9.97378 159.977 10.0057C159.953 10.2218 159.953 10.4398 159.977 10.6559V13.1327C159.954 13.353 159.954 13.575 159.977 13.7953C160.18 13.8349 160.389 13.8474 160.596 13.8324Z" fill="#FFFF00"/>
<path d="M173.884 12.4144V6.99634H176.806V9.47318C176.804 9.83052 176.727 10.1834 176.581 10.5096C176.435 10.8357 176.223 11.128 175.958 11.368C175.392 11.9237 174.667 12.2894 173.884 12.4144Z" fill="#FFFF00"/>
<path d="M181.5 21.7647C180.718 21.7598 179.97 21.4458 179.419 20.8913C178.868 20.3367 178.559 19.5867 178.559 18.8049V17.5665H181.5V18.1176C181.484 18.3371 181.496 18.5577 181.537 18.774C181.754 18.8225 181.978 18.8372 182.199 18.8173H189.63C189.852 18.8387 190.075 18.8241 190.292 18.774C190.319 18.556 190.319 18.3356 190.292 18.1176V16.5572C190.319 16.3392 190.319 16.1188 190.292 15.9008C190.075 15.8507 189.852 15.836 189.63 15.8575H181.5C180.721 15.8558 179.975 15.5463 179.424 14.9964C178.873 14.4465 178.562 13.7009 178.559 12.9224V9.94401C178.559 9.16222 178.868 8.41218 179.419 7.85763C179.97 7.30309 180.718 6.98909 181.5 6.98418H190.391C190.778 6.98181 191.16 7.05736 191.517 7.20631C191.873 7.35526 192.196 7.57455 192.466 7.85108C192.751 8.11885 192.977 8.4434 193.13 8.80385C193.282 9.1643 193.358 9.55268 193.351 9.94401V11.1824H190.348V10.6313C190.375 10.4134 190.375 10.1929 190.348 9.97497C190.131 9.92483 189.907 9.91019 189.686 9.93162H182.255C182.033 9.91176 181.81 9.92638 181.593 9.97497C181.551 10.1911 181.539 10.4119 181.555 10.6313V12.167C181.539 12.3864 181.552 12.6071 181.593 12.8233C181.81 12.8682 182.033 12.8828 182.255 12.8667H190.447C190.833 12.8632 191.216 12.9376 191.572 13.0855C191.928 13.2334 192.251 13.4517 192.521 13.7274C192.805 13.9928 193.03 14.3143 193.182 14.6714C193.335 15.0285 193.411 15.4135 193.407 15.8017V18.7801C193.413 19.1714 193.337 19.5595 193.184 19.9198C193.032 20.2802 192.806 20.6048 192.521 20.8731C192.252 21.1496 191.929 21.3689 191.573 21.5178C191.216 21.6668 190.833 21.7423 190.447 21.74L181.5 21.7647Z" fill="#FFFF00"/>
<path d="M78.1374 27.3747V28.2664H76.5275V32.9724H75.4873V28.2664H73.8835V27.3623L78.1374 27.3747Z" fill="white"/>
<path d="M80.1376 30.1863C80.1376 28.2874 81.0766 27.3379 82.9549 27.3379C84.8331 27.3379 85.7598 28.2874 85.735 30.1863C85.735 32.081 84.8083 33.0284 82.9549 33.0284C81.1675 33.0284 80.2284 32.081 80.1376 30.1863ZM82.9549 32.1244C84.088 32.1244 84.6515 31.468 84.6515 30.1677C84.6515 28.8673 84.088 28.2357 82.9549 28.2357C81.8217 28.2357 81.2212 28.855 81.2212 30.1677C81.2212 31.4804 81.8094 32.1244 82.9549 32.1244Z" fill="white"/>
<path d="M88.3233 30.7804V27.3748H89.3635V30.7804C89.3868 31.1282 89.5416 31.4542 89.7962 31.6923C90.0508 31.9304 90.3864 32.0629 90.735 32.0629C91.0836 32.0629 91.4192 31.9304 91.6739 31.6923C91.9285 31.4542 92.0831 31.1282 92.1065 30.7804V27.3748H93.1468V30.7804C93.1468 32.2789 92.3418 33.0282 90.7319 33.0282C89.122 33.0282 88.3191 32.2789 88.3233 30.7804Z" fill="white"/>
<path d="M96.9734 27.3748V32.087H99.2025V32.9848H95.9332V27.3748H96.9734Z" fill="white"/>
<path d="M101.004 30.1863C101.004 28.2874 101.944 27.3379 103.822 27.3379C105.7 27.3379 106.627 28.2874 106.602 30.1863C106.602 32.081 105.675 33.0284 103.822 33.0284C102.034 33.0284 101.095 32.081 101.004 30.1863ZM103.822 32.1244C104.955 32.1244 105.518 31.468 105.518 30.1677C105.518 28.8673 104.955 28.2357 103.822 28.2357C102.689 28.2357 102.088 28.855 102.088 30.1677C102.088 31.4804 102.664 32.1244 103.822 32.1244Z" fill="white"/>
<path d="M109.19 30.7804V27.3748H110.23V30.7804C110.254 31.1282 110.408 31.4542 110.663 31.6923C110.918 31.9304 111.253 32.0629 111.602 32.0629C111.951 32.0629 112.286 31.9304 112.541 31.6923C112.795 31.4542 112.95 31.1282 112.973 30.7804V27.3748H114.008V30.7804C114.008 32.2789 113.205 33.0282 111.599 33.0282C109.993 33.0282 109.19 32.2789 109.19 30.7804Z" fill="white"/>
<path d="M116.701 32.7494V31.8082C117.313 32.0267 117.959 32.1337 118.608 32.124C119.469 32.124 119.902 31.833 119.902 31.2571C119.902 30.8423 119.636 30.6379 119.11 30.6379H118.23C117.079 30.6379 116.509 30.1178 116.509 29.0713C116.509 27.9196 117.335 27.3437 118.986 27.3437C119.591 27.3385 120.193 27.4305 120.769 27.6162V28.5574C120.189 28.351 119.576 28.2524 118.961 28.2663C118.02 28.2663 117.549 28.545 117.549 29.0961C117.549 29.511 117.772 29.7153 118.23 29.7153H119.11C120.348 29.7153 120.967 30.2354 120.967 31.2819C120.967 32.4625 120.189 33.0528 118.633 33.0528C117.977 33.0565 117.324 32.954 116.701 32.7494Z" fill="white"/>
<path d="M127.277 27.3748V28.2664H124.466V29.6844H127.141V30.6132H124.453V32.087H127.333V32.9848H123.432V27.3748H127.277Z" fill="white"/>
<path d="M138.62 27.3748L136.144 32.9848H135.06L132.707 27.3748H133.946L135.686 31.6721L137.419 27.3748H138.62Z" fill="white"/>
<path d="M140.633 30.1863C140.633 28.2853 141.568 27.3379 143.45 27.3379C145.333 27.3379 146.224 28.2853 146.224 30.1863C146.224 32.0872 145.295 33.0284 143.45 33.0284C141.605 33.0284 140.701 32.081 140.633 30.1863ZM143.45 32.1244C144.577 32.1244 145.141 31.468 145.141 30.1677C145.141 28.8673 144.577 28.2357 143.45 28.2357C142.323 28.2357 141.71 28.855 141.71 30.1677C141.71 31.4804 142.274 32.1244 143.438 32.1244H143.45Z" fill="white"/>
<path d="M149.84 27.3748V32.087H152.069V32.9848H148.8V27.3748H149.84Z" fill="white"/>
<path d="M155.698 27.3748V32.087H157.927V32.9848H154.658V27.3748H155.698Z" fill="white"/>
<path d="M164.36 27.3748V28.2664H161.549V29.6844H164.224V30.6132H161.537V32.087H164.41V32.9848H160.515V27.3748H164.36Z" fill="white"/>
<path d="M166.49 27.3748H167.611L169.19 30.0807L170.67 27.3748H171.754L169.686 31.0219V32.9848H168.645V31.0219L166.49 27.3748Z" fill="white"/>
</svg>
